HIERARCHY
ROOT Hips
{
  OFFSET 3.13124 94.3669 -3.18751
  CHANNELS  6 Xposition Yposition Zposition Zrotation Xrotation Yrotation
  JOINT LeftUpLeg
  {
    OFFSET 8.64259 1.95398 -2.38835
    CHANNELS 3 Zrotation Xrotation Yrotation
    JOINT LeftLeg
    {
      OFFSET 43.7702 0 0
      CHANNELS 3 Zrotation Xrotation Yrotation
      JOINT LeftFoot
      {
        OFFSET 40.6238 0 0
        CHANNELS 3 Zrotation Xrotation Yrotation
        JOINT LeftToeBase
        {
          OFFSET 12.7242 0 0
          CHANNELS 3 Zrotation Xrotation Yrotation
          End Site
          {
            OFFSET 0 0 0
          }
        }
      }
    }
  }
  JOINT RightUpLeg
  {
    OFFSET -8.2249 1.95398 -2.59336
    CHANNELS 3 Zrotation Xrotation Yrotation
    JOINT RightLeg
    {
      OFFSET 43.5653 0 0
      CHANNELS 3 Zrotation Xrotation Yrotation
      JOINT RightFoot
      {
        OFFSET 40.6238 0 0
        CHANNELS 3 Zrotation Xrotation Yrotation
        JOINT RightToeBase
        {
          OFFSET 12.7242 0 0
          CHANNELS 3 Zrotation Xrotation Yrotation
          End Site
          {
            OFFSET 0 0 0
          }
        }
      }
    }
  }
  JOINT Spine
  {
    OFFSET 0.165834 0.87714 6.61349
    CHANNELS 3 Zrotation Xrotation Yrotation
    JOINT Spine1
    {
      OFFSET 7.38962 1.71661e-005 0
      CHANNELS 3 Zrotation Xrotation Yrotation
      JOINT Spine2
      {
        OFFSET 11.9445 1.14441e-005 0
        CHANNELS 3 Zrotation Xrotation Yrotation
        JOINT Spine3
        {
          OFFSET 14.7254 4.19617e-005 0
          CHANNELS 3 Zrotation Xrotation Yrotation
          JOINT Spine4
          {
            OFFSET 10.9679 0 0
            CHANNELS 3 Zrotation Xrotation Yrotation
            JOINT RightShoulder
            {
              OFFSET 2.46616 -1.6653 3.69651
              CHANNELS 3 Zrotation Xrotation Yrotation
              JOINT RightArm
              {
                OFFSET 13.0012 0 0
                CHANNELS 3 Zrotation Xrotation Yrotation
                JOINT RightForeArm
                {
                  OFFSET 28.7848 1.52588e-005 0
                  CHANNELS 3 Zrotation Xrotation Yrotation
                  JOINT RightHand
                  {
                    OFFSET 26.5688 1.52588e-005 0
                    CHANNELS 3 Zrotation Xrotation Yrotation
                    End Site
                    {
                      OFFSET 0 0 0
                    }
                  }
                }
              }
            }
            JOINT LeftShoulder
            {
              OFFSET 2.38034 -1.29275 -3.75231
              CHANNELS 3 Zrotation Xrotation Yrotation
              JOINT LeftArm
              {
                OFFSET 16.3182 6.10352e-005 0
                CHANNELS 3 Zrotation Xrotation Yrotation
                JOINT LeftForeArm
                {
                  OFFSET 27.0901 0 0
                  CHANNELS 3 Zrotation Xrotation Yrotation
                  JOINT LeftHand
                  {
                    OFFSET 24.5451 1.52588e-005 0
                    CHANNELS 3 Zrotation Xrotation Yrotation
                    End Site
                    {
                      OFFSET 0 0 0
                    }
                  }
                }
              }
            }
            JOINT Neck
            {
              OFFSET 5.0226 -0.0266342 0
              CHANNELS 3 Zrotation Xrotation Yrotation
              JOINT Head
              {
                OFFSET 6.69363 2.86102e-005 0
                CHANNELS 3 Zrotation Xrotation Yrotation
                End Site
                {
                  OFFSET 0 0 0
                }
              }
            }
          }
        }
      }
    }
  }
}
MOTION
Frames:	11
Frame Time:	0.0333333
3.26227 95.4159 -8.29123 48.1457 -89.9963 48.1437 -179.802 1.76316 90.3102 -7.33327 0.0408504 0.00904203 62.6009 1.37133 0.692807 28.7808 5.49087e-006 4.15371e-006 -179.568 1.81458 90.8825 -7.41883 0.611593 0.0297032 62.6396 -1.12917 -0.570984 28.7808 1.24156e-005 1.87698e-005 -0.000134232 6.34023 -89.9987 14.1935 -4.38561e-006 0.0129072 2.52251 2.80046e-006 0.0128264 -20.0126 -0.00437977 0.0127353 9.72366e-007 -0.00437481 0.0127348 101.061 -18.5528 -84.9129 -5.36118 27.4394 -6.63363 -6.99428 -28.0331 -10.3555 1.96159 0.12306 1.58045 -78.5375 -21.4025 95.3069 15.4209 -29.997 -7.52208 5.78032 29.9923 -9.51105 -2.07783 -0.0750445 1.6882 1.7573 -0.00170836 0.00459042 -7.41151 -0.0046444 -0.00387668 
3.26988 95.4464 -8.28788 47.3005 -89.9413 47.2717 -179.835 0.904766 90.263 -5.4657 -0.0137818 0.00904202 61.6813 1.43319 0.709928 28.7808 5.49087e-006 4.15371e-006 -179.537 1.46582 90.8797 -6.61378 0.877847 0.0455067 62.2215 -1.29457 -0.662833 28.7808 1.24156e-005 1.87698e-005 -0.00145165 6.34023 -89.9822 14.1934 1.31118e-005 0.0129072 2.52246 2.80046e-006 0.0128264 -20.0127 -0.00437977 0.0127353 -5.23311e-005 -0.00437481 0.0127348 101.127 -18.4689 -84.9026 -5.30483 27.6384 -6.08605 -7.63358 -28.0318 -11.6774 2.38334 0.16404 2.21165 -78.4643 -21.476 95.3288 15.4105 -30.1721 -7.26217 6.23372 29.978 -10.4021 -2.34991 -0.0891502 2.37185 1.81327 -0.0256323 0.0763235 -7.42074 -0.00413838 -0.0639635 
3.27756 95.4336 -8.27714 31.8743 -89.9417 31.8426 -179.835 0.942571 90.2584 -5.53741 -0.0225958 0.00904202 61.7405 1.41985 0.702732 28.7808 5.49087e-006 4.15371e-006 -179.569 1.81987 90.8571 -7.34688 0.705353 0.034912 62.5756 -1.11818 -0.564717 28.7808 1.24156e-005 1.87698e-005 -0.00216375 6.33967 -89.9759 14.1945 -0.000353985 0.0129072 2.52358 2.80046e-006 0.0128264 -20.0116 -0.00437977 0.0127353 0.00107211 -0.00437481 0.0127348 101.114 -18.4292 -84.9639 -5.30838 27.572 -6.14368 -7.46968 -27.9599 -11.3656 2.21755 0.146895 1.9458 -78.4407 -21.4624 95.3641 15.3763 -30.1295 -7.33719 6.1649 30.0829 -10.2359 -2.30702 -0.0866855 2.39109 1.84063 0.00373607 0.119426 -7.42216 0.00440943 -0.0944324 
3.28422 95.4655 -8.27327 36.0704 -89.8923 36.0752 -179.843 0.789623 90.2831 -5.139 -0.0401975 0.00904202 61.5756 1.45849 0.729711 28.7808 5.49087e-006 4.15371e-006 -179.523 0.947315 90.8853 -5.46766 0.774016 0.0324429 61.6442 -1.18254 -0.58668 28.7808 1.24156e-005 1.87698e-005 -0.00448358 6.32524 -90.0094 14.2234 -0.0090742 0.0129072 2.55245 2.80046e-006 0.0128264 -19.9827 -0.00437977 0.0127353 0.0299477 -0.00437481 0.0127348 101.02 -18.4271 -85.0161 -5.29451 27.5956 -5.98841 -7.60789 -28.0422 -11.6207 2.34769 0.154693 1.93739 -78.5194 -21.4732 95.3583 15.4304 -30.053 -7.46457 5.91924 30.0773 -9.75899 -2.1547 -0.0783556 1.98865 1.72785 0.0319628 0.121363 -7.39914 0.0189376 -0.114677 
3.29503 95.4345 -8.25798 19.3187 -89.9139 19.3018 -179.834 0.90824 90.2637 -5.4273 -0.0090294 0.00904202 61.7323 1.4435 0.718364 28.7808 5.49087e-006 4.15371e-006 -179.577 1.91408 90.8528 -7.50286 0.665199 0.0330967 62.6261 -1.19816 -0.611948 28.7808 1.24156e-005 1.87698e-005 -0.00235574 6.32506 -89.9748 14.2238 0.00163324 0.0129281 2.55285 2.80046e-006 0.0128427 -19.9823 -0.00437977 0.0127196 0.0303427 -0.00437481 0.0127191 101.014 -18.4672 -85.0419 -5.29311 27.5717 -6.01833 -7.54791 -28.0213 -11.5048 2.31 0.149909 1.84147 -78.5137 -21.4536 95.3579 15.4247 -30.0439 -7.47666 5.91624 30.1771 -9.73248 -2.17083 -0.0747885 1.86436 1.68626 0.0300776 0.0922179 -7.3812 0.0210913 -0.100208 
3.30355 95.4674 -8.24637 16.3009 -89.8964 16.3155 -179.839 0.825819 90.2846 -5.23103 -0.0437164 0.00904203 61.6051 1.44445 0.720309 28.7808 5.49087e-006 4.15371e-006 -179.519 0.911765 90.8756 -5.39306 0.750766 0.0350123 61.6266 -1.16593 -0.576953 28.7808 1.24156e-005 1.87698e-005 -0.00119058 6.32479 -90.0007 14.2264 -0.000466949 0.0132585 2.55545 2.80046e-006 0.0130405 -19.9797 -0.00435484 0.0125125 0.0329404 -0.00434991 0.0125111 101.008 -18.4547 -85.0665 -5.29078 27.5431 -6.0342 -7.48272 -27.9828 -11.384 2.31985 0.140886 1.46721 -78.4955 -21.4976 95.393 15.4791 -30.0045 -7.56271 5.78968 30.3765 -9.44604 -2.15017 -0.0723056 1.29184 1.70676 0.0264946 0.0934328 -7.44991 0.0164068 -0.064054 
3.31627 95.4494 -8.2336 12.7181 -89.9118 12.7201 -179.836 0.871286 90.2724 -5.37459 -0.00481467 0.00904202 61.6917 1.43861 0.715714 28.7808 5.49087e-006 4.15371e-006 -179.554 1.48267 90.8606 -6.62557 0.716586 0.0363283 62.2222 -1.19744 -0.605061 28.7808 1.24156e-005 1.87698e-005 0.000135999 6.32437 -89.9827 14.2289 -0.00119225 0.0134857 2.55796 2.80046e-006 0.0131493 -19.9772 -0.00394535 0.0127072 0.0354404 -0.00394106 0.012705 101.015 -18.4674 -85.0522 -5.24947 27.469 -6.23046 -7.30629 -28.0354 -10.9996 2.118 0.126574 1.35007 -78.5154 -21.4703 95.3441 15.4521 -29.9855 -7.52812 5.7765 30.2853 -9.44877 -2.12585 -0.0707427 1.34183 1.68654 0.0329499 0.0763236 -7.45163 0.0226726 -0.0292098 
3.32872 95.4742 -8.22478 23.0983 -89.9011 23.1144 -179.838 0.829274 90.2837 -5.2832 0.031602 0.00904202 61.6048 1.42254 0.706287 28.7808 5.49087e-006 4.15371e-006 -179.526 0.882751 90.8619 -5.38176 0.754686 0.0368261 61.6054 -1.20259 -0.598325 28.7808 1.24156e-005 1.87698e-005 -0.00117465 6.32405 -89.9954 14.231 -0.00164742 0.0136162 2.56008 2.80046e-006 0.0132152 -19.9751 -0.00352011 0.0130303 0.0375644 -0.00351662 0.0130268 101.003 -18.4689 -85.0703 -5.20295 27.6468 -5.79489 -7.88791 -28.2495 -12.1468 2.54841 0.165903 1.89799 -78.5159 -21.4766 95.3519 15.4522 -29.9834 -7.50153 5.80298 30.3598 -9.47789 -2.16367 -0.0699966 1.27646 1.66877 0.0508098 0.0973272 -7.45246 0.0376821 -0.0245977 
3.34521 95.4693 -8.21482 17.2246 -89.8932 17.2457 -179.849 0.814819 90.2642 -5.24729 -0.0519744 0.00904203 61.6217 1.4605 0.729865 28.7808 5.49087e-006 4.15371e-006 -179.532 0.894145 90.8558 -5.39773 0.727711 0.0372791 61.6296 -1.21941 -0.608868 28.7808 1.24156e-005 1.87698e-005 0.000567481 6.32388 -89.9967 14.2326 -0.00187178 0.0137058 2.56167 2.80046e-006 0.013284 -19.9735 -0.00308516 0.013455 0.0391601 -0.00308258 0.0134502 101.004 -18.4854 -85.0533 -5.21637 27.5722 -5.9634 -7.62707 -28.0168 -11.6758 2.38139 0.138363 1.2387 -78.5176 -21.5099 95.3615 15.4791 -29.9347 -7.64159 5.62981 30.4198 -9.12603 -2.10762 -0.0699402 1.00843 1.71627 0.0629518 0.180696 -7.53023 0.0391388 -0.0961417 
3.36338 95.4686 -8.20849 23.7293 -89.8732 23.7467 -179.855 0.818055 90.2531 -5.23097 -0.0247144 0.00904202 61.6248 1.46814 0.734664 28.7808 5.49087e-006 4.15371e-006 -179.536 0.89436 90.8464 -5.38086 0.770734 0.0377316 61.6318 -1.19796 -0.596439 28.7808 1.24156e-005 1.87698e-005 -0.000397318 6.32402 -89.9957 14.2323 -0.00190469 0.0138102 2.56138 2.80046e-006 0.0134015 -19.9738 -0.00264657 0.0139546 0.0388635 -0.00264493 0.0139488 101.003 -18.4796 -85.0631 -5.17526 27.5358 -6.06319 -7.5715 -28.1372 -11.5241 2.23282 0.135302 1.44349 -78.5044 -21.4989 95.3847 15.4481 -29.8735 -7.82029 5.43861 30.3983 -8.76421 -1.99309 -0.0704383 0.787857 1.73153 0.0606603 0.145747 -7.50403 0.03879 -0.0388263 
3.38359 95.4647 -8.19855 29.9865 -89.8699 30.0017 -179.862 0.789285 90.2429 -5.19011 -0.0451952 0.00904203 61.638 1.46787 0.73537 28.7808 5.49087e-006 4.15371e-006 -179.542 0.887445 90.8387 -5.38992 0.759878 0.0382257 61.6597 -1.1712 -0.580721 28.7808 1.24156e-005 1.87698e-005 0.001027 6.32459 -89.9975 14.228 -0.00178549 0.0139851 2.557 2.80046e-006 0.0136136 -19.9782 -0.00221036 0.0145023 0.0344906 -0.00220965 0.014496 101 -18.511 -85.0624 -5.20437 27.6471 -5.76614 -7.86255 -28.0556 -12.155 2.5252 0.15318 1.48654 -78.5118 -21.4708 95.3736 15.4385 -29.8605 -7.82319 5.44578 30.552 -8.74356 -2.02343 -0.0713629 0.62614 1.7409 0.0537979 0.116667 -7.4773 0.0377908 -0.0515826 
